<mxfile host="app.diagrams.net" modified="2024-06-05T09:53:46.726Z" agent="Mozilla/5.0 (Windows NT 10.0; Win64; x64) AppleWebKit/537.36 (KHTML, like Gecko) Chrome/125.0.0.0 Safari/537.36" etag="xtis6IbdKAKJAf1eUY4h" version="24.4.13" type="github">
  <diagram name="第 1 页" id="fV2HUzSDQJo2BThUPiUe">
    <mxGraphModel dx="1434" dy="738" grid="1" gridSize="10" guides="1" tooltips="1" connect="1" arrows="1" fold="1" page="1" pageScale="1" pageWidth="827" pageHeight="1169" math="0" shadow="0">
      <root>
        <mxCell id="0" />
        <mxCell id="1" parent="0" />
        <mxCell id="gNxx5OxtWh47tjOOWTCf-4" value="" style="edgeStyle=orthogonalEdgeStyle;rounded=0;orthogonalLoop=1;jettySize=auto;html=1;" edge="1" parent="1" source="gNxx5OxtWh47tjOOWTCf-2" target="gNxx5OxtWh47tjOOWTCf-3">
          <mxGeometry relative="1" as="geometry" />
        </mxCell>
        <mxCell id="gNxx5OxtWh47tjOOWTCf-2" value="&lt;span style=&quot;color: rgb(50, 50, 50); font-family: &amp;quot;Microsoft YaHei&amp;quot;, 微软雅黑, Arial; font-size: 18px; background-color: rgba(255, 255, 255, 0.01);&quot;&gt;病原体整理&lt;/span&gt;" style="rounded=0;whiteSpace=wrap;html=1;" vertex="1" parent="1">
          <mxGeometry x="340" y="130" width="120" height="60" as="geometry" />
        </mxCell>
        <mxCell id="gNxx5OxtWh47tjOOWTCf-6" value="" style="edgeStyle=orthogonalEdgeStyle;rounded=0;orthogonalLoop=1;jettySize=auto;html=1;" edge="1" parent="1" source="gNxx5OxtWh47tjOOWTCf-3" target="gNxx5OxtWh47tjOOWTCf-5">
          <mxGeometry relative="1" as="geometry" />
        </mxCell>
        <mxCell id="gNxx5OxtWh47tjOOWTCf-3" value="&lt;span style=&quot;color: rgb(50, 50, 50); font-family: &amp;quot;Microsoft YaHei&amp;quot;, 微软雅黑, Arial; font-size: 18px; background-color: rgba(255, 255, 255, 0.01);&quot;&gt;基因组下载&lt;/span&gt;" style="rounded=0;whiteSpace=wrap;html=1;" vertex="1" parent="1">
          <mxGeometry x="340" y="270" width="120" height="60" as="geometry" />
        </mxCell>
        <mxCell id="gNxx5OxtWh47tjOOWTCf-8" value="" style="edgeStyle=orthogonalEdgeStyle;rounded=0;orthogonalLoop=1;jettySize=auto;html=1;" edge="1" parent="1" source="gNxx5OxtWh47tjOOWTCf-5" target="gNxx5OxtWh47tjOOWTCf-7">
          <mxGeometry relative="1" as="geometry" />
        </mxCell>
        <mxCell id="gNxx5OxtWh47tjOOWTCf-5" value="&lt;span style=&quot;color: rgb(50, 50, 50); font-family: &amp;quot;Microsoft YaHei&amp;quot;, 微软雅黑, Arial; font-size: 18px; background-color: rgba(255, 255, 255, 0.01);&quot;&gt;基因组质控&lt;/span&gt;" style="rounded=0;whiteSpace=wrap;html=1;" vertex="1" parent="1">
          <mxGeometry x="340" y="410" width="120" height="60" as="geometry" />
        </mxCell>
        <mxCell id="gNxx5OxtWh47tjOOWTCf-7" value="&lt;span style=&quot;color: rgb(50, 50, 50); font-family: &amp;quot;Microsoft YaHei&amp;quot;, 微软雅黑, Arial; font-size: 18px; background-color: rgba(255, 255, 255, 0.01);&quot;&gt;数据库构建&lt;/span&gt;" style="rounded=0;whiteSpace=wrap;html=1;" vertex="1" parent="1">
          <mxGeometry x="340" y="550" width="120" height="60" as="geometry" />
        </mxCell>
      </root>
    </mxGraphModel>
  </diagram>
</mxfile>
